<?xml version="1.0" ?><svg height="128" id="svg8" version="1.1" viewBox="0 0 33.866666 33.866668" width="128" xmlns="http://www.w3.org/2000/svg" xmlns:cc="http://creativecommons.org/ns#" xmlns:dc="http://purl.org/dc/elements/1.1/" xmlns:inkscape="http://www.inkscape.org/namespaces/inkscape" xmlns:rdf="http://www.w3.org/1999/02/22-rdf-syntax-ns#" xmlns:sodipodi="http://sodipodi.sourceforge.net/DTD/sodipodi-0.dtd" xmlns:svg="http://www.w3.org/2000/svg" xmlns:xlink="http://www.w3.org/1999/xlink"><defs id="defs2"><linearGradient id="linearGradient2202"><stop id="stop2198" offset="0" style="stop-color:#f6f600;stop-opacity:1;"/><stop id="stop2200" offset="1" style="stop-color:#f69134;stop-opacity:1"/></linearGradient><linearGradient gradientTransform="matrix(0.39352029,0,0,0.39352035,-185.27183,93.82285)" gradientUnits="userSpaceOnUse" id="linearGradient3363" x1="12.262755" x2="12.262755" xlink:href="#linearGradient2202" y1="9.0164375" y2="14.680936"/><clipPath clipPathUnits="userSpaceOnUse" id="clipPath3457"><rect height="58.93293" id="rect3459" rx="2.6458333" ry="2.6458333" style="fill:#1a1a1a;stroke-width:0.264583;stroke-linecap:square;stroke-dasharray:0.264583, 1.05833;paint-order:fill markers stroke" width="61.739258" x="-262.11121" y="114.49826"/></clipPath></defs><g id="layer1"><path d="M 64.007812 4 C 30.875995 4.0006901 4.0190958 30.860367 4.0195312 63.992188 C 4.0199281 74.886211 6.9866389 85.574614 12.601562 94.910156 L 9.390625 116.67383 C 8.5551601 122.00585 12.825017 124.62238 16.806641 123.87891 L 41.134766 119.44531 C 48.389486 122.43858 56.159843 123.9796 64.007812 123.98047 C 97.139635 123.98091 123.99931 97.124006 124 63.992188 C 124.00043 30.85957 97.140429 3.9995642 64.007812 4 z M 44.085938 31.744141 C 45.156488 31.789477 46.205037 32.190795 47.15625 33.113281 C 47.409905 33.35928 47.655896 33.64367 47.894531 33.966797 L 53.523438 46.917969 C 54.666042 49.065462 53.620816 51.107521 52.40625 52.746094 L 47.011719 60.025391 C 49.308175 63.586953 52.864255 67.797908 58.037109 72.46875 C 63.210058 77.139467 67.762298 80.249732 71.539062 82.171875 L 78.230469 76.064453 C 79.736939 74.689438 81.663398 73.441218 83.916016 74.359375 L 97.373047 78.642578 C 97.718772 78.8471 98.026488 79.061611 98.296875 79.289062 C 102.35481 82.698699 98.282793 88.48208 96.041016 90.964844 C 91.207911 96.317517 83.393549 98.981053 75.330078 97.410156 C 67.266834 95.839301 58.805043 90.878853 49.224609 82.228516 C 39.644327 73.578016 33.849958 65.666237 31.466797 57.804688 C 29.083562 49.942911 30.936418 41.895651 35.769531 36.542969 C 37.450857 34.680894 40.874286 31.608131 44.085938 31.744141 z " id="path4160" style="fill:#000000;fill-opacity:1;stroke:none;stroke-width:9.99848;stroke-linecap:square;stroke-miterlimit:4;stroke-dasharray:none;stroke-dashoffset:0;stroke-opacity:1;paint-order:fill markers stroke" transform="scale(0.26458333)"/></g></svg>